<mxfile host="app.diagrams.net" modified="2023-06-14T07:21:40.559Z" agent="Mozilla/5.0 (X11; Linux x86_64) AppleWebKit/537.36 (KHTML, like Gecko) Chrome/112.0.0.0 Safari/537.36" version="21.2.9" etag="PTKPpfwn8YHqr0lcr784" type="github">
  <diagram name="Page-1" id="yG6xuPFltWYFbB4pSRWE">
    <mxGraphModel>
      <root>
        <mxCell id="0" />
        <mxCell id="1" parent="0" />
      </root>
    </mxGraphModel>
  </diagram>
</mxfile>
